HIERARCHY
ROOT root
{
	OFFSET 0.000000 0.000000 0.000000
	CHANNELS 6 Xposition Yposition Zposition Zrotation Yrotation Xrotation
	JOINT lhip
	{
		OFFSET 0.058581 -0.082280 -0.017664
		CHANNELS 3 Zrotation Yrotation Xrotation
		JOINT lknee
		{
			OFFSET 0.043451 -0.386469 0.008037
			CHANNELS 3 Zrotation Yrotation Xrotation
			JOINT lankle
			{
				OFFSET -0.014790 -0.426874 -0.037428
				CHANNELS 3 Zrotation Yrotation Xrotation
				JOINT ltoe
				{
					OFFSET 0.041054 -0.060286 0.122042
					CHANNELS 3 Zrotation Yrotation Xrotation
					End Site
					{
						OFFSET 0.000000 0.000000 0.000000
					}
				}
			}
		}
	}
	JOINT rhip
	{
		OFFSET -0.060310 -0.090513 -0.013543
		CHANNELS 3 Zrotation Yrotation Xrotation
		JOINT rknee
		{
			OFFSET -0.043257 -0.383688 -0.004843
			CHANNELS 3 Zrotation Yrotation Xrotation
			JOINT rankle
			{
				OFFSET 0.019056 -0.420046 -0.034562
				CHANNELS 3 Zrotation Yrotation Xrotation
				JOINT rtoe
				{
					OFFSET -0.034840 -0.062106 0.130323
					CHANNELS 3 Zrotation Yrotation Xrotation
					End Site
					{
						OFFSET 0.000000 0.000000 0.000000
					}
				}
			}
		}
	}
	JOINT lowerback
	{
		OFFSET 0.004439 0.124404 -0.038385
		CHANNELS 3 Zrotation Yrotation Xrotation
		JOINT upperback
		{
			OFFSET 0.004488 0.137956 0.026820
			CHANNELS 3 Zrotation Yrotation Xrotation
			JOINT chest
			{
				OFFSET -0.002265 0.056032 0.002855
				CHANNELS 3 Zrotation Yrotation Xrotation
				JOINT lowerneck
				{
					OFFSET -0.013390 0.211636 -0.033468
					CHANNELS 3 Zrotation Yrotation Xrotation
					JOINT upperneck
					{
						OFFSET 0.010113 0.088937 0.050410
						CHANNELS 3 Zrotation Yrotation Xrotation
						End Site
						{
							OFFSET 0.000000 0.000000 0.000000
						}
					}
				}
				JOINT lclavicle
				{
					OFFSET 0.071702 0.114000 -0.018898
					CHANNELS 3 Zrotation Yrotation Xrotation
					JOINT lshoulder
					{
						OFFSET 0.122921 0.045205 -0.019046
						CHANNELS 3 Zrotation Yrotation Xrotation
						JOINT lelbow
						{
							OFFSET 0.255332 -0.015649 -0.022946
							CHANNELS 3 Zrotation Yrotation Xrotation
							JOINT lwrist
							{
								OFFSET 0.265709 0.012698 -0.007375
								CHANNELS 3 Zrotation Yrotation Xrotation
								End Site
								{
									OFFSET 0.000000 0.000000 0.000000
								}
							}
						}
					}
				}
				JOINT rclavicle
				{
					OFFSET -0.082954 0.112472 -0.023707
					CHANNELS 3 Zrotation Yrotation Xrotation
					JOINT rshoulder
					{
						OFFSET -0.113228 0.046853 -0.008472
						CHANNELS 3 Zrotation Yrotation Xrotation
						JOINT relbow
						{
							OFFSET -0.260127 -0.014369 -0.031269
							CHANNELS 3 Zrotation Yrotation Xrotation
							JOINT rwrist
							{
								OFFSET -0.269108 0.006794 -0.006027
								CHANNELS 3 Zrotation Yrotation Xrotation
								End Site
								{
									OFFSET 0.000000 0.000000 0.000000
								}
							}
						}
					}
				}
			}
		}
	}
}
MOTION
Frames: 17
Frame Time: 0.033333
0.370986 0.651725 0.569685 -84.050939 1.682144 56.415259 27.516124 4.376972 -38.555147 -8.244657 0.347130 107.474178 -0.206310 9.493070 -33.570847 0.000000 -0.000000 0.000000 -27.384879 -4.969216 -40.443318 2.318285 3.021117 102.089414 3.366002 -3.787653 -26.190715 0.000000 -0.000000 0.000000 -1.862222 -0.798890 49.057706 0.729366 -2.920354 1.515230 -1.232043 -1.035420 -0.925725 -3.935058 2.996044 -13.007100 -1.538653 -3.866143 12.102612 -21.168049 -29.989401 1.011872 -35.557198 -27.178248 0.622818 39.514598 -65.345742 -9.121407 10.386760 -11.805342 5.716777 22.004267 34.639657 2.524191 38.227711 29.644939 2.891384 -45.004582 55.205441 -17.569046 2.361815 5.257206 19.660585 
0.372206 0.651972 0.569082 -83.883209 1.760526 55.952604 27.505923 4.557175 -38.428710 -8.595444 0.184129 107.623867 -0.337011 9.584921 -33.548088 0.000000 -0.000000 0.000000 -27.287240 -4.778188 -40.107296 2.236606 3.166871 102.140883 3.552497 -4.136178 -26.047633 0.000000 -0.000000 0.000000 -1.665419 -0.936687 49.361813 0.706483 -2.892425 1.731798 -1.289604 -1.012321 -0.820014 -3.872127 2.815484 -13.511140 -1.504302 -4.351151 12.132297 -20.782535 -30.267760 0.529782 -35.314014 -27.636635 0.781952 37.378502 -64.562396 -7.519164 10.744858 -11.787774 5.263785 21.992288 34.841636 2.297142 37.548446 29.715718 2.775411 -44.397003 54.758657 -17.497182 1.693016 5.501126 19.710304 
0.373048 0.652322 0.569260 -83.729426 1.769807 55.657543 27.302591 4.575648 -38.277246 -8.711968 0.085598 107.534286 -0.328257 9.373236 -33.422731 0.000000 -0.000000 0.000000 -27.134545 -4.670681 -39.898567 2.277474 3.389707 102.198847 3.553056 -4.347301 -25.675496 0.000000 -0.000000 0.000000 -1.628442 -0.975539 49.844957 0.624589 -2.863181 1.701763 -1.188168 -0.910036 -1.117749 -4.217350 2.343577 -13.054590 -1.180048 -3.927717 11.469835 -21.169508 -30.850461 0.727896 -34.756427 -27.636335 0.680031 36.646848 -64.006313 -7.526558 10.439718 -11.789021 5.695118 21.947969 35.439549 2.552882 36.782594 29.306831 2.308682 -44.344080 54.366989 -18.282339 1.773973 5.086775 19.977272 
0.373988 0.652124 0.569038 -83.590779 1.591946 55.516380 27.241484 4.477274 -38.188923 -8.345063 0.257620 107.453011 -0.472388 9.237375 -33.319666 0.000000 -0.000000 0.000000 -27.209384 -4.919144 -39.978151 2.164322 3.761500 102.301325 3.617740 -4.078316 -25.511461 0.000000 -0.000000 0.000000 -1.575575 -0.924430 50.028702 0.521704 -2.911280 1.747983 -1.151352 -1.054982 -1.160627 -4.321870 2.497668 -13.284208 -1.224808 -4.164083 11.666382 -20.772389 -30.878020 0.675329 -35.505818 -28.099115 0.747033 37.519103 -63.107512 -9.034558 9.381620 -11.927513 6.628207 21.720917 35.476866 2.349008 36.363475 29.664335 2.090521 -42.802456 54.013427 -17.178263 1.956335 5.701500 19.400042 
0.374570 0.652342 0.568558 -83.478292 1.517979 55.278442 27.356212 4.628331 -38.163600 -9.208013 0.620084 107.589812 -0.518305 9.101402 -33.136641 0.000000 -0.000000 0.000000 -27.367814 -4.813107 -39.842021 2.418993 3.674443 102.415913 3.704134 -4.509399 -25.344963 0.000000 -0.000000 0.000000 -1.570653 -0.929251 50.514809 0.522662 -2.948383 1.601352 -1.222995 -1.035395 -1.385971 -4.647474 2.271816 -13.080097 -0.958372 -3.858172 11.388392 -20.929979 -31.753243 0.917597 -33.456854 -27.736377 0.163396 35.416797 -63.021203 -6.976415 9.743023 -11.187605 5.617748 21.537715 36.094165 2.517495 35.972779 29.189228 1.950223 -43.569082 53.629363 -17.749492 3.226627 4.469121 18.981827 
0.374567 0.652886 0.568958 -83.510227 1.656801 54.646169 27.292773 4.853603 -37.563566 -9.170995 0.020571 107.694572 -0.798152 8.815044 -33.290644 0.000000 -0.000000 0.000000 -27.056623 -4.620619 -39.200862 2.213069 3.870596 102.375569 3.811642 -4.415205 -25.499253 0.000000 -0.000000 0.000000 -1.349100 -1.015329 51.571295 0.369452 -2.872073 1.271431 -1.205512 -0.827951 -1.305155 -4.680713 2.255684 -13.329375 -0.844899 -4.218515 11.207507 -20.811679 -32.344854 0.693105 -33.080478 -28.095020 0.049239 34.095127 -62.089128 -6.229603 10.461721 -11.648877 5.506126 21.444228 36.552233 2.376340 35.455889 29.189470 1.626854 -43.262119 52.889086 -18.092319 1.599536 5.395279 19.749732 
0.375645 0.653854 0.570494 -84.070168 1.618051 54.191724 27.562215 5.501104 -36.785134 -9.569674 -0.136148 107.444429 -1.143812 8.830632 -33.387022 0.000000 -0.000000 0.000000 -26.148237 -4.025936 -39.126772 2.041974 4.319156 102.539469 3.718932 -4.612996 -25.571391 0.000000 -0.000000 0.000000 -1.639166 -0.856196 52.833834 0.260757 -2.258692 0.618589 -0.939653 -0.611240 -1.470410 -4.822295 2.188856 -13.609815 -0.756283 -4.294615 11.566600 -21.039823 -32.697872 0.642406 -32.716816 -27.932092 -0.040862 33.993226 -61.949495 -6.702404 9.943703 -11.535984 6.247539 21.430168 36.983806 1.934470 35.202232 28.787335 1.465622 -42.983751 52.616105 -18.202872 1.622405 5.702339 20.211574 
0.374078 0.652007 0.568192 -83.042751 1.455894 55.141811 27.116135 4.768501 -38.216404 -9.017934 0.466271 107.750898 -0.966481 8.651249 -33.580304 0.000000 -0.000000 0.000000 -27.497503 -5.005064 -39.667199 2.093002 3.986373 102.650001 3.938019 -4.008555 -25.707064 0.000000 -0.000000 0.000000 -1.325720 -0.940382 51.117093 0.459762 -3.108812 1.486084 -1.155339 -0.891273 -1.579438 -4.861023 2.165029 -13.152446 -1.021328 -4.379656 10.812320 -21.001754 -32.783910 0.756168 -33.276473 -28.444370 -0.004794 34.555682 -61.081512 -6.601673 9.160366 -11.851830 5.602390 21.411536 36.750889 2.518333 34.904818 29.303059 1.259427 -42.900849 52.477436 -17.527750 1.747774 5.030683 19.112563 
0.373390 0.651952 0.568087 -82.933530 1.401566 55.230849 27.211386 4.792207 -38.327806 -8.911264 0.590665 107.770236 -0.845705 8.227044 -33.568627 0.000000 -0.000000 0.000000 -27.560864 -5.162067 -39.631585 2.138809 4.049831 102.698929 3.821052 -4.155874 -25.812812 0.000000 -0.000000 0.000000 -1.189929 -0.927782 50.867186 0.437116 -3.195025 1.961813 -1.181273 -0.937001 -1.670865 -4.867766 1.985548 -13.539912 -0.893235 -4.581684 10.728697 -21.041467 -32.918255 0.781385 -32.810216 -28.585676 -0.429248 33.905654 -61.151975 -6.422585 9.026116 -12.119119 6.033047 21.484579 36.869408 2.854423 34.303530 29.574054 0.674542 -42.700652 52.461033 -17.709545 0.700826 5.984502 19.351710 
0.372999 0.651924 0.568092 -82.864778 1.431926 55.187149 27.238985 4.760518 -38.303369 -8.944692 0.496012 107.830916 -0.745742 8.319755 -33.553008 0.000000 -0.000000 0.000000 -27.627934 -5.093125 -39.458301 2.127813 3.996183 102.634457 3.942156 -4.140945 -25.780082 0.000000 -0.000000 0.000000 -1.081404 -0.974148 51.094607 0.416968 -3.244459 1.987326 -1.183579 -0.767564 -1.854051 -4.888327 1.818823 -13.366553 -0.828493 -4.543866 10.627513 -20.681929 -33.552118 0.826974 -32.963937 -28.449312 -0.243266 34.101410 -60.757902 -6.324298 10.073326 -11.771991 5.539737 21.137493 37.316642 3.056410 34.121904 29.108737 0.204489 -43.145100 52.396518 -18.111870 0.453616 6.067823 18.777192 
0.371867 0.651973 0.567844 -82.797343 1.281114 55.340846 27.013102 4.533712 -38.341509 -8.952616 0.595189 107.781284 -0.919743 8.684359 -33.603461 0.000000 -0.000000 0.000000 -27.851113 -4.957702 -39.567389 2.105378 3.953424 102.710531 3.968945 -4.114647 -25.855468 0.000000 -0.000000 0.000000 -1.147355 -0.999860 50.974414 0.399213 -3.240043 2.067599 -1.214198 -0.962025 -1.896498 -4.972819 2.030680 -13.647943 -0.926567 -4.268261 10.849207 -20.865526 -33.511481 0.974351 -32.702969 -28.387629 -0.514874 34.638430 -60.824836 -7.038564 9.082307 -11.536065 5.803637 21.221894 37.187801 3.132584 33.939559 29.330548 0.120881 -42.771406 52.803839 -17.797091 1.377310 5.418383 18.276821 
0.371299 0.651785 0.567638 -82.814123 1.389645 55.639440 27.058235 4.646481 -38.705539 -8.957488 0.549961 107.895782 -1.012793 8.610240 -33.631226 0.000000 -0.000000 0.000000 -27.571539 -4.891299 -39.768897 2.127395 3.977579 102.773289 3.891002 -4.481698 -25.999983 0.000000 -0.000000 0.000000 -1.089010 -1.097501 50.979221 0.463226 -3.169059 2.066724 -1.180311 -0.832735 -2.199465 -5.089367 1.562400 -13.639202 -0.766186 -4.184257 10.608747 -20.850201 -33.625532 1.039295 -32.740531 -28.444991 -0.547318 34.674196 -60.673554 -6.849097 8.610461 -11.423228 5.789352 21.021963 37.481430 3.240252 33.951995 28.910224 0.058150 -43.431391 52.816239 -18.359838 3.289747 4.887572 18.068964 
0.370588 0.651855 0.567717 -82.951256 1.383380 55.824821 27.138314 4.961115 -38.818998 -8.794994 0.405880 107.894209 -0.752479 8.594800 -33.507381 0.000000 -0.000000 0.000000 -27.361617 -4.761588 -40.001498 1.930174 4.050822 102.885535 3.840022 -4.339550 -26.029866 0.000000 -0.000000 0.000000 -1.110536 -1.045814 51.062306 0.381314 -3.101271 1.871047 -1.156767 -0.631533 -1.966811 -5.330971 2.036180 -13.469317 -0.506365 -4.240643 10.053501 -20.619306 -33.935922 0.935574 -32.813018 -28.707955 -0.550430 34.574074 -60.268148 -7.873346 10.032293 -12.289036 6.308485 20.779849 37.512307 2.754443 34.090273 28.699569 0.038246 -43.509251 53.039851 -18.749416 1.363893 5.733483 18.172374 
0.370032 0.651657 0.568299 -82.906831 1.378296 55.876113 27.057176 4.867076 -38.814636 -8.744262 0.432802 107.873086 -0.921620 8.614177 -33.697165 0.000000 -0.000000 0.000000 -27.476372 -4.348805 -39.843489 1.725410 3.871787 102.750202 4.068940 -4.397245 -26.112020 0.000000 -0.000000 0.000000 -1.077608 -1.280929 51.364266 0.373303 -3.018547 1.633271 -1.230117 -0.823072 -1.880222 -5.287217 1.730748 -13.573964 -0.743631 -4.086989 9.831479 -21.209821 -33.725284 0.971433 -31.918265 -28.844184 -0.824982 34.140858 -60.424740 -7.242879 8.771644 -12.982147 5.778284 21.156752 37.501292 2.622058 33.972283 29.229679 0.597610 -43.449364 52.479795 -19.199596 1.483616 5.774079 18.640279 
0.370002 0.651749 0.568704 -83.046543 1.310457 55.966607 26.849786 4.877589 -38.717403 -8.811927 0.302672 107.837005 -0.737083 8.987175 -33.465322 0.000000 -0.000000 0.000000 -27.272449 -4.432668 -40.004409 1.932205 4.022081 102.722731 3.967924 -4.650911 -26.204445 0.000000 -0.000000 0.000000 -1.046386 -1.314528 51.597065 0.322818 -2.925155 1.269031 -1.240307 -0.813112 -1.497983 -5.261067 1.791977 -13.748084 -0.927425 -3.949587 9.943882 -20.672990 -33.518412 0.711540 -31.995734 -29.201624 -0.877535 33.319473 -60.471828 -6.407326 9.859853 -12.467808 4.425757 20.706654 37.224868 2.327803 33.976489 29.661267 0.415023 -42.636658 52.629349 -18.127423 0.705253 5.763292 17.826806 
0.369792 0.652264 0.568860 -83.162810 1.353458 55.990421 26.958902 4.896898 -38.636912 -8.792556 0.284272 107.826133 -0.901702 8.850351 -33.694160 0.000000 -0.000000 0.000000 -27.070001 -4.235497 -40.105716 1.835978 4.084604 102.794148 3.989754 -4.589597 -26.085182 0.000000 -0.000000 0.000000 -1.027398 -1.397376 51.900045 0.305170 -2.813561 1.140352 -1.240776 -0.812957 -1.498317 -5.146195 2.053055 -13.964558 -0.777067 -4.141649 10.191207 -20.321826 -33.572806 0.353031 -32.374845 -29.082517 -0.518413 34.600860 -60.325523 -7.446859 9.361146 -11.924435 5.614055 20.716577 37.510699 2.065508 33.880774 29.685235 0.802220 -43.179338 52.130386 -18.755826 0.977643 5.713399 18.124276 
0.369567 0.652590 0.569235 -83.321748 1.290321 55.870256 27.018011 4.874207 -38.325939 -8.835881 0.292976 107.671578 -1.153719 9.188477 -33.664646 0.000000 -0.000000 0.000000 -26.817543 -4.127204 -40.057191 1.900195 4.294924 102.813593 3.894169 -4.915589 -26.239410 0.000000 -0.000000 0.000000 -1.096457 -1.347363 52.321420 0.241725 -2.722661 1.069649 -1.208333 -0.673224 -1.536647 -5.213964 2.256985 -14.261953 -0.488638 -4.024391 10.511066 -20.286562 -33.966878 0.414197 -31.849020 -28.894769 -0.732764 34.750760 -60.330723 -7.811108 9.399938 -11.697064 5.187804 20.959914 37.854574 2.332240 33.298927 29.586242 0.088555 -43.370581 52.192567 -18.992119 1.630246 5.785197 18.261175 
